<svg width="60" height="22" viewBox="0 0 60 22" fill="none" xmlns="http://www.w3.org/2000/svg">
<path d="M2.80957 11.4473H4.04688C5.45508 11.4473 6.33008 12.165 6.33008 13.3271C6.33008 14.3594 5.39355 15.0977 4.08789 15.0977C2.76172 15.0977 1.9209 14.4004 1.81152 13.3887H0.628906C0.717773 15.0225 2.03711 16.1641 4.10156 16.1641C6.03613 16.1641 7.58105 14.9814 7.58105 13.2861C7.58105 11.8984 6.62402 10.9756 5.13379 10.8867V10.8594C6.36426 10.6406 7.15723 9.75195 7.15723 8.51465C7.15723 7.03125 5.82422 5.97168 4.06055 5.97168C2.20801 5.97168 0.963867 7.04492 0.827148 8.71973H2.00977C2.11914 7.6875 2.87109 7.03809 4.00586 7.03809C5.25684 7.03809 5.91992 7.70117 5.91992 8.67871C5.91992 9.67676 5.12695 10.4082 3.99219 10.4082H2.80957V11.4473ZM11.9902 16H13.1797V11.8574C13.1797 10.627 13.9111 9.82031 15.0938 9.82031C16.208 9.82031 16.7754 10.4971 16.7754 11.625V16H17.9648V11.4062C17.9648 9.82031 17.0215 8.76758 15.4629 8.76758C14.3828 8.76758 13.6035 9.23242 13.207 10.0254H13.1797V6.13574H11.9902V16ZM19.4756 16H20.665V11.5703C20.665 10.5654 21.2666 9.90234 22.1895 9.90234C22.4766 9.90234 22.7295 9.93652 22.8252 9.9707V8.81543C22.7295 8.80176 22.5518 8.76758 22.3467 8.76758C21.5127 8.76758 20.8564 9.2666 20.624 10.0527H20.5967V8.89062H19.4756V16ZM23.6729 10.8525C23.6729 11.8232 24.2881 12.4658 25.5391 12.7871L26.79 13.1084C27.5898 13.3203 27.8838 13.5938 27.8838 14.0996C27.8838 14.7422 27.2891 15.1523 26.3252 15.1523C25.3613 15.1523 24.8008 14.7559 24.6709 14.0176H23.4814C23.6045 15.2754 24.6914 16.123 26.25 16.123C27.9111 16.123 29.0801 15.248 29.0801 14.0107C29.0801 12.9648 28.5605 12.4453 27.125 12.083L26.0244 11.8164C25.2178 11.6113 24.8418 11.2832 24.8418 10.791C24.8418 10.1689 25.416 9.73828 26.2842 9.73828C27.1592 9.73828 27.7129 10.1621 27.7949 10.8457H28.9297C28.875 9.64258 27.7949 8.76758 26.3252 8.76758C24.7598 8.76758 23.6729 9.63574 23.6729 10.8525Z" fill="#8C8C8C"/>
<path d="M58.6438 12.5547L57.7483 11.7891C57.7907 11.5293 57.8126 11.2641 57.8126 10.9989C57.8126 10.7336 57.7907 10.4684 57.7483 10.2086L58.6438 9.44301C58.7114 9.38519 58.7597 9.30817 58.7824 9.22221C58.8051 9.13624 58.8011 9.0454 58.771 8.96176L58.7587 8.92621C58.5121 8.23719 58.143 7.59845 57.669 7.04086L57.6444 7.01215C57.5869 6.94454 57.5103 6.89595 57.4246 6.87276C57.339 6.84958 57.2483 6.85289 57.1645 6.88227L56.053 7.27738C55.6429 6.94106 55.1848 6.67582 54.6899 6.48988L54.4753 5.32777C54.4591 5.24033 54.4167 5.15989 54.3537 5.09713C54.2907 5.03437 54.21 4.99226 54.1225 4.97641L54.0856 4.96957C53.3733 4.84106 52.6241 4.84106 51.9118 4.96957L51.8749 4.97641C51.7874 4.99226 51.7068 5.03437 51.6438 5.09713C51.5808 5.15989 51.5383 5.24033 51.5222 5.32777L51.3061 6.49535C50.8152 6.68133 50.3579 6.94642 49.9526 7.28012L48.8329 6.88227C48.7492 6.85266 48.6584 6.84922 48.5727 6.87242C48.487 6.89562 48.4104 6.94436 48.353 7.01215L48.3284 7.04086C47.855 7.59884 47.4859 8.23747 47.2388 8.92621L47.2264 8.96176C47.1649 9.13266 47.2155 9.32406 47.3536 9.44301L48.26 10.2168C48.2177 10.4739 48.1972 10.7364 48.1972 10.9975C48.1972 11.26 48.2177 11.5225 48.26 11.7782L47.3536 12.552C47.2861 12.6098 47.2377 12.6868 47.215 12.7728C47.1923 12.8588 47.1963 12.9496 47.2264 13.0332L47.2388 13.0688C47.4862 13.7579 47.8526 14.3936 48.3284 14.9541L48.353 14.9829C48.4105 15.0505 48.4871 15.0991 48.5728 15.1222C48.6585 15.1454 48.7491 15.1421 48.8329 15.1127L49.9526 14.7149C50.36 15.0498 50.8153 15.3151 51.3061 15.4996L51.5222 16.6672C51.5383 16.7547 51.5808 16.8351 51.6438 16.8979C51.7068 16.9606 51.7874 17.0027 51.8749 17.0186L51.9118 17.0254C52.6307 17.1546 53.3668 17.1546 54.0856 17.0254L54.1225 17.0186C54.21 17.0027 54.2907 16.9606 54.3537 16.8979C54.4167 16.8351 54.4591 16.7547 54.4753 16.6672L54.6899 15.5051C55.1846 15.3197 55.6452 15.0536 56.053 14.7176L57.1645 15.1127C57.2483 15.1423 57.339 15.1458 57.4247 15.1226C57.5104 15.0994 57.5871 15.0506 57.6444 14.9829L57.669 14.9541C58.1448 14.3922 58.5112 13.7579 58.7587 13.0688L58.771 13.0332C58.8325 12.8651 58.7819 12.6737 58.6438 12.5547V12.5547ZM56.7776 10.37C56.8118 10.5764 56.8296 10.7883 56.8296 11.0002C56.8296 11.2121 56.8118 11.4241 56.7776 11.6305L56.6874 12.1788L57.7087 13.0524C57.5539 13.4091 57.3584 13.7467 57.1263 14.0586L55.8575 13.6088L55.4282 13.9616C55.1014 14.2295 54.7378 14.4401 54.344 14.5877L53.8231 14.7832L53.5784 16.1094C53.1923 16.1532 52.8024 16.1532 52.4163 16.1094L52.1716 14.7805L51.6548 14.5823C51.2651 14.4346 50.9028 14.2241 50.5788 13.9575L50.1495 13.6034L48.8725 14.0573C48.6401 13.7442 48.446 13.4065 48.2901 13.051L49.3223 12.1692L49.2335 11.6223C49.2007 11.4186 49.1829 11.208 49.1829 11.0002C49.1829 10.7911 49.1993 10.5819 49.2335 10.3782L49.3223 9.83129L48.2901 8.94945C48.4446 8.59262 48.6401 8.25629 48.8725 7.9432L50.1495 8.39711L50.5788 8.04301C50.9028 7.77641 51.2651 7.56586 51.6548 7.4182L52.1729 7.2227L52.4177 5.89379C52.8018 5.85004 53.1942 5.85004 53.5798 5.89379L53.8245 7.21996L54.3454 7.41547C54.7378 7.56313 55.1028 7.77367 55.4296 8.04164L55.8589 8.39438L57.1276 7.94457C57.36 8.25766 57.5542 8.59535 57.71 8.95082L56.6888 9.82445L56.7776 10.37ZM53.0001 8.45727C51.6712 8.45727 50.5938 9.53461 50.5938 10.8635C50.5938 12.1924 51.6712 13.2698 53.0001 13.2698C54.329 13.2698 55.4063 12.1924 55.4063 10.8635C55.4063 9.53461 54.329 8.45727 53.0001 8.45727ZM54.0829 11.9463C53.9409 12.0888 53.7721 12.2017 53.5863 12.2787C53.4004 12.3556 53.2012 12.3951 53.0001 12.3948C52.5913 12.3948 52.2071 12.2348 51.9173 11.9463C51.7748 11.8043 51.6619 11.6355 51.5849 11.4497C51.508 11.2639 51.4685 11.0647 51.4688 10.8635C51.4688 10.4547 51.6288 10.0705 51.9173 9.7807C52.2071 9.49086 52.5913 9.33227 53.0001 9.33227C53.4089 9.33227 53.7931 9.49086 54.0829 9.7807C54.2253 9.92272 54.3383 10.0915 54.4152 10.2773C54.4922 10.4632 54.5316 10.6624 54.5313 10.8635C54.5313 11.2723 54.3714 11.6565 54.0829 11.9463Z" fill="#8C8C8C"/>
<circle cx="38" cy="11" r="2" fill="#BFBFBF"/>
</svg>
